<svg width="1439" height="366" viewBox="0 0 1439 366" fill="none" xmlns="http://www.w3.org/2000/svg">
<g clip-path="url(#clip0_71_837)">
<path d="M0 73.1996L119.917 79.3245C239.833 85.1506 479.667 97.8486 719.5 128.1C959.333 158.351 1199.17 207.649 1439 195.175C1678.83 183 1918.67 109.8 2158.5 91.4996C2398.33 73.1996 2638.17 109.8 2878 115.925C3117.83 121.751 3357.67 97.8486 3597.5 85.3747C3837.33 73.1996 4077.17 73.1996 4317 73.1996C4556.83 73.1996 4796.67 73.1996 5036.5 85.3747C5276.33 97.8486 5516.17 121.751 5756 146.4C5995.83 171.049 6235.67 194.951 6475.5 225.725C6715.33 256.2 6955.17 292.8 7195 292.8C7434.83 292.8 7674.67 256.2 7914.5 237.9C8154.33 219.6 8394.17 219.6 8634 189.124C8873.83 158.351 9113.67 97.8486 9353.5 85.3747C9593.33 73.1996 9833.17 109.8 10073 146.4C10312.8 183 10552.7 219.6 10792.5 207.425C11032.3 194.951 11272.2 134.449 11512 134.225C11751.8 134.449 11991.7 194.951 12231.5 219.6C12471.3 244.249 12711.2 231.551 12951 195.175C13190.8 158.351 13430.7 97.8486 13670.5 97.6245C13910.3 97.8486 14150.2 158.351 14390 176.875C14629.8 194.951 14869.7 171.049 15109.5 152.525C15349.3 134.449 15589.2 121.751 15829 97.6245C16068.8 73.1996 16308.7 36.5996 16548.5 36.5996C16788.3 36.5996 17028.2 73.1996 17148.1 91.4996L17268 109.8V366H17148.1C17028.2 366 16788.3 366 16548.5 366C16308.7 366 16068.8 366 15829 366C15589.2 366 15349.3 366 15109.5 366C14869.7 366 14629.8 366 14390 366C14150.2 366 13910.3 366 13670.5 366C13430.7 366 13190.8 366 12951 366C12711.2 366 12471.3 366 12231.5 366C11991.7 366 11751.8 366 11512 366C11272.2 366 11032.3 366 10792.5 366C10552.7 366 10312.8 366 10073 366C9833.17 366 9593.33 366 9353.5 366C9113.67 366 8873.83 366 8634 366C8394.17 366 8154.33 366 7914.5 366C7674.67 366 7434.83 366 7195 366C6955.17 366 6715.33 366 6475.5 366C6235.67 366 5995.83 366 5756 366C5516.17 366 5276.33 366 5036.5 366C4796.67 366 4556.83 366 4317 366C4077.17 366 3837.33 366 3597.5 366C3357.67 366 3117.83 366 2878 366C2638.17 366 2398.33 366 2158.5 366C1918.67 366 1678.83 366 1439 366C1199.17 366 959.333 366 719.5 366C479.667 366 239.833 366 119.917 366H0V73.1996Z" fill="url(#paint0_linear_71_837)"/>
<path opacity="0.9" d="M0 146.69H98.4931C196.986 146.69 393.972 146.69 590.958 158.849C787.944 171.307 984.931 195.177 1181.92 195.401C1378.9 195.177 1575.89 171.307 1772.88 183.242C1969.86 195.177 2166.85 244.41 2363.83 250.228C2560.82 256.345 2757.81 219.793 2954.79 213.677C3151.78 207.858 3348.76 231.729 3545.75 238.069C3742.74 244.41 3939.72 231.729 4136.71 195.401C4333.69 158.625 4530.68 98.2032 4727.67 116.255C4924.65 134.755 5121.64 231.729 5318.62 250.228C5515.61 268.28 5712.6 207.858 5909.58 207.634C6106.57 207.858 6303.56 268.28 6500.54 250.228C6697.53 231.729 6894.51 134.755 7091.5 85.7458C7288.49 37.0351 7485.47 37.0351 7682.46 67.47C7879.44 98.2032 8076.43 158.625 8273.42 183.242C8470.4 207.858 8667.39 195.177 8864.38 158.849C9061.36 122.074 9258.35 61.6516 9455.33 85.7458C9652.32 110.138 9849.31 219.793 10046.3 238.069C10243.3 256.345 10440.3 183.242 10637.2 140.573C10834.2 98.2032 11031.2 85.522 11228.2 104.022C11425.2 122.074 11622.2 171.307 11819.2 183.242C12016.2 195.177 12213.1 171.307 12410.1 134.531C12607.1 98.2032 12804.1 48.9704 13001.1 37.0351C13198.1 25.0999 13395.1 48.9704 13592 97.9794C13789 146.69 13986 219.793 14084.5 256.345L14183 292.897V366H14084.5C13986 366 13789 366 13592 366C13395.1 366 13198.1 366 13001.1 366C12804.1 366 12607.1 366 12410.1 366C12213.1 366 12016.2 366 11819.2 366C11622.2 366 11425.2 366 11228.2 366C11031.2 366 10834.2 366 10637.2 366C10440.3 366 10243.3 366 10046.3 366C9849.31 366 9652.32 366 9455.33 366C9258.35 366 9061.36 366 8864.38 366C8667.39 366 8470.4 366 8273.42 366C8076.43 366 7879.44 366 7682.46 366C7485.47 366 7288.49 366 7091.5 366C6894.51 366 6697.53 366 6500.54 366C6303.56 366 6106.57 366 5909.58 366C5712.6 366 5515.61 366 5318.62 366C5121.64 366 4924.65 366 4727.67 366C4530.68 366 4333.69 366 4136.71 366C3939.72 366 3742.74 366 3545.75 366C3348.76 366 3151.78 366 2954.79 366C2757.81 366 2560.82 366 2363.83 366C2166.85 366 1969.86 366 1772.88 366C1575.89 366 1378.9 366 1181.92 366C984.931 366 787.944 366 590.958 366C393.972 366 196.986 366 98.4931 366H0V146.69Z" fill="url(#paint1_linear_71_837)"/>
</g>
<defs>
<linearGradient id="paint0_linear_71_837" x1="0" y1="366" x2="0" y2="36.5996" gradientUnits="userSpaceOnUse">
<stop stop-color="#1B8366"/>
<stop offset="1" stop-color="#57C478"/>
</linearGradient>
<linearGradient id="paint1_linear_71_837" x1="0" y1="366" x2="0" y2="34" gradientUnits="userSpaceOnUse">
<stop stop-color="#57C478"/>
<stop offset="1" stop-color="#1B8366"/>
</linearGradient>
<clipPath id="clip0_71_837">
<rect width="1439" height="366" fill="white"/>
</clipPath>
</defs>
</svg>
